<svg width="16" height="12" viewBox="0 0 16 12" fill="none" xmlns="http://www.w3.org/2000/svg">
<path d="M5.55069 9.15L14.0257 0.675C14.2257 0.475 14.4632 0.375 14.7382 0.375C15.0132 0.375 15.2507 0.475 15.4507 0.675C15.6507 0.875 15.7507 1.1125 15.7507 1.3875C15.7507 1.6625 15.6507 1.9 15.4507 2.1L6.25069 11.3C6.05069 11.5 5.81736 11.6 5.55069 11.6C5.28403 11.6 5.05069 11.5 4.85069 11.3L0.550695 7C0.350695 6.8 0.254862 6.5625 0.263195 6.2875C0.271529 6.0125 0.375695 5.775 0.575695 5.575C0.775695 5.375 1.0132 5.275 1.2882 5.275C1.5632 5.275 1.80069 5.375 2.00069 5.575L5.55069 9.15Z" fill="white"/>
</svg>
